<svg width="20" height="20" viewBox="0 0 20 20" fill="none" xmlns="http://www.w3.org/2000/svg">
<path d="M16.6666 18.3333H14.9999V16.6666C14.9999 16.0035 14.7365 15.3677 14.2677 14.8988C13.7988 14.43 13.163 14.1666 12.4999 14.1666H7.49992C6.83688 14.1666 6.20099 14.43 5.73215 14.8988C5.26331 15.3677 4.99992 16.0035 4.99992 16.6666V18.3333H3.33325V16.6666C3.33325 15.5615 3.77224 14.5017 4.55364 13.7203C5.33504 12.9389 6.39485 12.4999 7.49992 12.4999H12.4999C13.605 12.4999 14.6648 12.9389 15.4462 13.7203C16.2276 14.5017 16.6666 15.5615 16.6666 16.6666V18.3333ZM9.99992 10.8333C9.34331 10.8333 8.69313 10.7039 8.0865 10.4526C7.47987 10.2014 6.92868 9.83308 6.46438 9.36879C6.00009 8.90449 5.63179 8.3533 5.38052 7.74667C5.12925 7.14004 4.99992 6.48986 4.99992 5.83325C4.99992 5.17664 5.12925 4.52646 5.38052 3.91983C5.63179 3.31321 6.00009 2.76201 6.46438 2.29772C6.92868 1.83343 7.47987 1.46513 8.0865 1.21385C8.69313 0.962581 9.34331 0.833252 9.99992 0.833252C11.326 0.833252 12.5978 1.36004 13.5355 2.29772C14.4731 3.2354 14.9999 4.50717 14.9999 5.83325C14.9999 7.15933 14.4731 8.4311 13.5355 9.36879C12.5978 10.3065 11.326 10.8333 9.99992 10.8333ZM9.99992 9.16658C10.884 9.16658 11.7318 8.8154 12.3569 8.19027C12.9821 7.56515 13.3333 6.71731 13.3333 5.83325C13.3333 4.9492 12.9821 4.10135 12.3569 3.47623C11.7318 2.85111 10.884 2.49992 9.99992 2.49992C9.11586 2.49992 8.26802 2.85111 7.6429 3.47623C7.01777 4.10135 6.66659 4.9492 6.66659 5.83325C6.66659 6.71731 7.01777 7.56515 7.6429 8.19027C8.26802 8.8154 9.11586 9.16658 9.99992 9.16658Z" fill="#9055FD"/>
</svg>
