<svg width="28" height="34" viewBox="0 0 28 34" fill="none" xmlns="http://www.w3.org/2000/svg">
<path fill-rule="evenodd" clip-rule="evenodd" d="M23.1246 18.0671C23.0814 13.7601 26.6366 11.6942 26.7953 11.5904C24.7977 8.6688 21.6852 8.26792 20.5769 8.22277C17.9307 7.95342 15.4101 9.78167 14.0671 9.78167C12.7274 9.78167 10.6529 8.26193 8.45823 8.30036C5.57038 8.34359 2.90939 9.98008 1.42327 12.565C-1.57521 17.7663 0.656596 25.4753 3.57822 29.6974C5.00692 31.7605 6.71029 34.0828 8.94483 33.9977C11.099 33.9127 11.9123 32.6041 14.5159 32.6041C17.1196 32.6041 17.8512 33.9977 20.1296 33.9539C22.4458 33.912 23.9143 31.8509 25.3315 29.7791C26.9709 27.3819 27.6464 25.061 27.6862 24.9429C27.6361 24.9198 23.171 23.209 23.1246 18.0671ZM18.8432 5.42869C20.0283 3.98986 20.8313 1.99024 20.6134 0C18.9026 0.0694622 16.832 1.13718 15.6044 2.57468C14.5043 3.8502 13.542 5.88086 13.7998 7.83526C15.7076 7.98312 17.654 6.86486 18.8432 5.42869Z" fill="#D3D4DC"/>
</svg>
