<svg width="16" height="9" viewBox="0 0 16 9" fill="none" xmlns="http://www.w3.org/2000/svg">
<path d="M12.1123 5.7865C11.7532 5.7865 11.3976 5.78996 11.0385 5.7865C7.98973 5.74162 4.94097 5.69673 1.8922 5.6484C1.56073 5.64494 1.22582 5.65185 0.894353 5.62423C0.438592 5.58625 -0.0931304 5.50338 0.0139045 4.91641C0.0553374 4.68163 0.559437 4.38469 0.863279 4.36743C3.40795 4.22241 5.95607 4.13264 8.50419 4.03942C9.08425 4.0187 9.66431 4.03597 10.3065 3.72177C9.60907 3.3247 8.87364 2.97943 8.23143 2.5064C7.92758 2.28197 7.56505 1.76752 7.6341 1.48094C7.78602 0.845634 8.4455 0.938857 8.88399 1.13221C10.9591 2.04719 13.0584 2.92418 15.0506 4.00144C16.3246 4.69199 16.3143 5.72781 15.0471 6.41145C13.3484 7.32643 11.5392 8.03424 9.75408 8.78348C9.54002 8.87325 9.19474 8.65573 8.90816 8.57977C9.00484 8.29319 9.0152 7.89958 9.212 7.74421C9.64014 7.40584 10.165 7.18832 10.6518 6.92246C11.1628 6.64624 11.6738 6.37692 12.1848 6.10416C12.1606 5.99712 12.1365 5.89009 12.1123 5.7865Z" fill="#8C57FF"/>
</svg>
