<svg width="43" height="43" viewBox="0 0 43 43" fill="none" xmlns="http://www.w3.org/2000/svg">
<path d="M30.25 27.5743V39.6003C30.25 39.7551 30.209 39.9071 30.1311 40.0409C30.0531 40.1747 29.9411 40.2854 29.8064 40.3617C29.6717 40.438 29.5192 40.4773 29.3644 40.4754C29.2096 40.4735 29.058 40.4306 28.9253 40.351L21.5 35.8955L14.0748 40.351C13.9418 40.4307 13.7901 40.4736 13.6352 40.4754C13.4802 40.4772 13.3276 40.4378 13.1928 40.3613C13.0581 40.2847 12.9461 40.1738 12.8683 40.0398C12.7905 39.9058 12.7497 39.7535 12.75 39.5985V27.576C10.4858 25.7632 8.84049 23.2918 8.04155 20.5035C7.24262 17.7151 7.32947 14.7475 8.29011 12.0106C9.25075 9.27375 11.0377 6.90283 13.4041 5.22551C15.7705 3.54819 18.5995 2.64728 21.5 2.64728C24.4006 2.64728 27.2295 3.54819 29.5959 5.22551C31.9623 6.90283 33.7493 9.27375 34.7099 12.0106C35.6705 14.7475 35.7574 17.7151 34.9584 20.5035C34.1595 23.2918 32.5142 25.7632 30.25 27.576V27.5743ZM16.25 29.627V34.9645L21.5 31.8145L26.75 34.9645V29.627C25.082 30.3016 23.2993 30.6475 21.5 30.6455C19.7007 30.6475 17.918 30.3016 16.25 29.627ZM21.5 27.1455C24.2848 27.1455 26.9555 26.0393 28.9246 24.0701C30.8938 22.101 32 19.4303 32 16.6455C32 13.8608 30.8938 11.19 28.9246 9.2209C26.9555 7.25177 24.2848 6.14552 21.5 6.14552C18.7152 6.14552 16.0445 7.25177 14.0754 9.2209C12.1062 11.19 11 13.8608 11 16.6455C11 19.4303 12.1062 22.101 14.0754 24.0701C16.0445 26.0393 18.7152 27.1455 21.5 27.1455Z" fill="#16B1FF"/>
</svg>
