<svg width="20" height="17" viewBox="0 0 20 17" fill="none" xmlns="http://www.w3.org/2000/svg">
<path d="M17.7697 4.49698C17.7827 4.67198 17.7827 4.84598 17.7827 5.01998C17.7827 10.345 13.7297 16.481 6.32272 16.481C4.04072 16.481 1.92072 15.82 0.136719 14.672C0.460719 14.709 0.772719 14.722 1.10972 14.722C2.99272 14.722 4.72572 14.086 6.11072 13.001C4.33972 12.964 2.85572 11.804 2.34372 10.208C2.59272 10.245 2.84272 10.27 3.10472 10.27C3.46572 10.27 3.82872 10.22 4.16572 10.133C2.31872 9.75898 0.935719 8.13798 0.935719 6.17998V6.12998C1.47272 6.42898 2.09572 6.61598 2.75572 6.64098C1.67072 5.91898 0.959719 4.68398 0.959719 3.28698C0.959719 2.53898 1.15872 1.85298 1.50772 1.25498C3.49072 3.69798 6.47172 5.29498 9.81372 5.46998C9.75172 5.16998 9.71372 4.85898 9.71372 4.54698C9.71372 2.32698 11.5097 0.518982 13.7417 0.518982C14.9017 0.518982 15.9487 1.00498 16.6847 1.79098C17.5947 1.61598 18.4667 1.27898 19.2407 0.817982C18.9417 1.75298 18.3047 2.53898 17.4697 3.03798C18.2807 2.94998 19.0667 2.72598 19.7887 2.41398C19.2407 3.21198 18.5557 3.92298 17.7697 4.49698Z" fill="#1DA1F2"/>
</svg>
