<svg width="19" height="19" viewBox="0 0 19 19" fill="none" xmlns="http://www.w3.org/2000/svg">
<path d="M17.9973 7.87498H9.67033V11.326H14.4623C14.0163 13.519 12.1493 14.779 9.67033 14.779C6.74733 14.779 4.39133 12.423 4.39133 9.49898C4.39133 6.57598 6.74733 4.21998 9.67033 4.21998C10.9293 4.21998 12.0673 4.66698 12.9603 5.39798L15.5603 2.79898C13.9763 1.41798 11.9453 0.565979 9.67033 0.565979C4.71633 0.565979 0.736328 4.54498 0.736328 9.49998C0.736328 14.455 4.71533 18.434 9.67033 18.434C14.1373 18.434 18.1993 15.185 18.1993 9.49998C18.1993 8.97198 18.1183 8.40298 17.9973 7.87498Z" fill="#DB4437"/>
</svg>
