<svg width="21" height="21" viewBox="0 0 21 21" fill="none" xmlns="http://www.w3.org/2000/svg">
<path d="M10.7626 0.772217C5.25357 0.772217 0.788574 5.23722 0.788574 10.7462C0.788574 15.1522 3.64557 18.8912 7.60957 20.2112C8.10857 20.3012 8.28857 19.9942 8.28857 19.7302C8.28857 19.4932 8.28057 18.8652 8.27757 18.0342C5.50257 18.6362 4.91657 16.6962 4.91657 16.6962C4.46457 15.5442 3.80957 15.2372 3.80957 15.2372C2.90457 14.6182 3.87857 14.6322 3.87857 14.6322C4.88057 14.7022 5.40557 15.6602 5.40557 15.6602C6.29557 17.1842 7.74157 16.7442 8.30757 16.4892C8.39857 15.8442 8.65857 15.4042 8.94257 15.1552C6.72857 14.9042 4.40057 14.0482 4.40057 10.2252C4.40057 9.13822 4.78957 8.24622 5.42457 7.55022C5.32357 7.29722 4.97857 6.28222 5.52357 4.91022C5.52357 4.91022 6.36057 4.64122 8.26557 5.93122C9.06357 5.71022 9.91457 5.59922 10.7616 5.59522C11.6106 5.59922 12.4626 5.71022 13.2576 5.93122C15.1636 4.64022 15.9996 4.91022 15.9996 4.91022C16.5446 6.28222 16.2026 7.29722 16.0986 7.55022C16.7386 8.24622 17.1226 9.13722 17.1226 10.2252C17.1226 14.0582 14.7926 14.9002 12.5706 15.1472C12.9256 15.4552 13.2456 16.0632 13.2456 16.9932C13.2456 18.3272 13.2336 19.4032 13.2336 19.7302C13.2336 19.9972 13.4116 20.3072 13.9206 20.2092C17.8826 18.8872 20.7366 15.1512 20.7366 10.7462C20.7366 5.23722 16.2716 0.772217 10.7626 0.772217Z" fill="#272727"/>
</svg>
