<svg width="34" height="34" viewBox="0 0 34 34" fill="none" xmlns="http://www.w3.org/2000/svg">
<path d="M28.586 15.1147C29.7315 15.968 29.7315 17.8898 28.6577 18.7432L25.6357 20.4544L21.1572 16.9289L25.6467 13.4707L28.586 15.1147Z" fill="#FFC801"/>
<path d="M25.6591 20.4379L25.6584 20.4372H25.6578L21.1531 16.9309L21.1517 16.9296L21.151 16.9302L21.1491 16.9282L21.1332 16.9402L4.54556 29.574V30.102C4.5455 30.7994 4.70872 31.5433 5.26574 31.8016C5.99966 32.142 7.07046 31.4768 7.07046 31.4768L25.6591 20.4379Z" fill="#F93647"/>
<path d="M21.1332 16.9402L4.54562 29.574V4.02344L21.1293 16.9349L21.1332 16.9402Z" fill="#00D3FF"/>
<path d="M4.54562 3.7678V4.02346L21.1292 16.9349L21.1332 16.9402L21.1491 16.9282L21.1505 16.9275L21.1571 16.9222L25.6467 13.49C25.6467 13.49 11.2078 4.85772 7.02205 2.36815C6.83996 2.25984 6.4036 1.98512 5.88039 2.15645C5.25358 2.36178 4.54562 3.10739 4.54562 3.7678Z" fill="#00EF77"/>
</svg>
