<svg width="20" height="20" viewBox="0 0 20 20" fill="none" xmlns="http://www.w3.org/2000/svg">
<path d="M10.0001 1.66675C14.6017 1.66675 18.3334 4.98175 18.3334 9.07425C18.3328 10.3019 17.8447 11.4791 16.9765 12.3471C16.1084 13.2151 14.9311 13.703 13.7034 13.7034H12.0651C11.2967 13.7034 10.6759 14.3242 10.6759 15.0926C10.6759 15.4442 10.8151 15.7684 11.0276 16.0092C11.2501 16.2592 11.3892 16.5834 11.3892 16.9442C11.3892 17.7134 10.7501 18.3334 10.0001 18.3334C5.39842 18.3334 1.66675 14.6017 1.66675 10.0001C1.66675 5.39842 5.39842 1.66675 10.0001 1.66675ZM9.00925 15.0926C9.00892 14.6912 9.08774 14.2937 9.24119 13.9228C9.39464 13.5519 9.61972 13.2149 9.90355 12.931C10.1874 12.6472 10.5244 12.4221 10.8953 12.2687C11.2662 12.1152 11.6637 12.0364 12.0651 12.0367H13.7034C14.4889 12.0363 15.2421 11.7242 15.7977 11.1689C16.3533 10.6136 16.6659 9.86058 16.6667 9.07508C16.6667 5.94925 13.7234 3.33341 10.0001 3.33341C8.27973 3.33185 6.62537 3.99538 5.3829 5.18529C4.14043 6.3752 3.40604 7.99936 3.3333 9.71817C3.26055 11.437 3.85507 13.1174 4.99255 14.408C6.13004 15.6987 7.72241 16.4996 9.43675 16.6434C9.15772 16.1745 9.01006 15.6391 9.00925 15.0934V15.0926ZM6.25008 10.0001C5.91856 10.0001 5.60062 9.86839 5.3662 9.63397C5.13178 9.39954 5.00008 9.0816 5.00008 8.75008C5.00008 8.41856 5.13178 8.10062 5.3662 7.8662C5.60062 7.63178 5.91856 7.50008 6.25008 7.50008C6.5816 7.50008 6.89954 7.63178 7.13397 7.8662C7.36839 8.10062 7.50008 8.41856 7.50008 8.75008C7.50008 9.0816 7.36839 9.39954 7.13397 9.63397C6.89954 9.86839 6.5816 10.0001 6.25008 10.0001ZM13.7501 10.0001C13.4186 10.0001 13.1006 9.86839 12.8662 9.63397C12.6318 9.39954 12.5001 9.0816 12.5001 8.75008C12.5001 8.41856 12.6318 8.10062 12.8662 7.8662C13.1006 7.63178 13.4186 7.50008 13.7501 7.50008C14.0816 7.50008 14.3995 7.63178 14.634 7.8662C14.8684 8.10062 15.0001 8.41856 15.0001 8.75008C15.0001 9.0816 14.8684 9.39954 14.634 9.63397C14.3995 9.86839 14.0816 10.0001 13.7501 10.0001ZM10.0001 7.50008C9.66856 7.50008 9.35062 7.36839 9.1162 7.13397C8.88178 6.89954 8.75008 6.5816 8.75008 6.25008C8.75008 5.91856 8.88178 5.60062 9.1162 5.3662C9.35062 5.13178 9.66856 5.00008 10.0001 5.00008C10.3316 5.00008 10.6495 5.13178 10.884 5.3662C11.1184 5.60062 11.2501 5.91856 11.2501 6.25008C11.2501 6.5816 11.1184 6.89954 10.884 7.13397C10.6495 7.36839 10.3316 7.50008 10.0001 7.50008Z" fill="#9055FD"/>
</svg>
