<svg width="43" height="43" viewBox="0 0 43 43" fill="none" xmlns="http://www.w3.org/2000/svg">
<path d="M9.25 14.8955H33.75V9.64551H9.25V14.8955ZM25 34.1455V18.3955H9.25V34.1455H25ZM28.5 34.1455H33.75V18.3955H28.5V34.1455ZM7.5 6.14551H35.5C35.9641 6.14551 36.4092 6.32988 36.7374 6.65807C37.0656 6.98626 37.25 7.43138 37.25 7.89551V35.8955C37.25 36.3596 37.0656 36.8048 36.7374 37.1329C36.4092 37.4611 35.9641 37.6455 35.5 37.6455H7.5C7.03587 37.6455 6.59075 37.4611 6.26256 37.1329C5.93437 36.8048 5.75 36.3596 5.75 35.8955V7.89551C5.75 7.43138 5.93437 6.98626 6.26256 6.65807C6.59075 6.32988 7.03587 6.14551 7.5 6.14551V6.14551Z" fill="#8C57FF"/>
</svg>
