<svg width="20" height="20" viewBox="0 0 20 20" fill="none" xmlns="http://www.w3.org/2000/svg">
<path d="M17.5 6.66675V17.4942C17.5008 17.6037 17.48 17.7122 17.4388 17.8136C17.3976 17.915 17.3369 18.0073 17.2601 18.0852C17.1832 18.1631 17.0918 18.2252 16.991 18.2678C16.8902 18.3103 16.7819 18.3327 16.6725 18.3334H3.3275C3.10818 18.3334 2.89783 18.2463 2.74266 18.0913C2.5875 17.9363 2.50022 17.7261 2.5 17.5067V2.49341C2.5 2.04591 2.87417 1.66675 3.335 1.66675H12.4975L17.5 6.66675ZM15.8333 7.50008H11.6667V3.33341H4.16667V16.6667H15.8333V7.50008ZM6.66667 5.83342H9.16667V7.50008H6.66667V5.83342ZM6.66667 9.16675H13.3333V10.8334H6.66667V9.16675ZM6.66667 12.5001H13.3333V14.1667H6.66667V12.5001Z" fill="#9055FD"/>
</svg>
