<svg width="18" height="20" viewBox="0 0 18 20" fill="none" xmlns="http://www.w3.org/2000/svg">
<path d="M5.33958 19.3235L5.68627 17.1217L4.9141 17.1038H1.22687L3.78929 0.856343C3.79692 0.8067 3.82213 0.76145 3.86034 0.728847C3.89854 0.696239 3.94719 0.678449 3.99744 0.678714H10.2146C12.2785 0.678714 13.7029 1.10821 14.4466 1.95595C14.7952 2.35363 15.0173 2.76922 15.1247 3.22655C15.2373 3.70643 15.2393 4.27976 15.1293 4.97902L15.1214 5.03005V5.47809L15.47 5.67565C15.7362 5.81048 15.9754 5.99288 16.1759 6.21385C16.4742 6.55384 16.667 6.98603 16.7486 7.49837C16.8327 8.02531 16.8049 8.65231 16.667 9.3622C16.5079 10.1788 16.2508 10.89 15.9035 11.4719C15.597 11.9932 15.185 12.4448 14.6938 12.7975C14.2325 13.1249 13.6844 13.3735 13.0647 13.5326C12.4641 13.689 11.7795 13.7679 11.0285 13.7679H10.5447C10.1987 13.7679 9.86259 13.8925 9.5988 14.1158C9.3354 14.3416 9.16065 14.6535 9.10567 14.9961L9.06925 15.1942L8.45681 19.075L8.42895 19.2175C8.42164 19.2625 8.40909 19.2851 8.39053 19.3004C8.37252 19.3151 8.3501 19.3232 8.32689 19.3235H5.33958Z" fill="#253B80"/>
<path d="M15.8003 5.07983C15.7818 5.19845 15.7605 5.31977 15.7367 5.44439C14.9168 9.65387 12.1118 11.1081 8.52928 11.1081H6.70522C6.26712 11.1081 5.89792 11.4262 5.82963 11.8584L4.89576 17.7812L4.63126 19.4602C4.62076 19.5268 4.62476 19.5948 4.64307 19.6597C4.66138 19.7246 4.69355 19.7848 4.73732 19.836C4.7811 19.8873 4.83548 19.9285 4.89666 19.9567C4.9579 19.985 5.02453 19.9996 5.09192 19.9997H8.32712C8.71023 19.9997 9.03566 19.7213 9.09599 19.3435L9.12781 19.1791L9.7369 15.3136L9.77602 15.1015C9.83566 14.7224 10.1618 14.444 10.5449 14.444H11.0287C14.1632 14.444 16.6169 13.1714 17.334 9.48883C17.6336 7.95048 17.4786 6.66592 16.6858 5.76251C16.4346 5.48306 16.1345 5.25173 15.8003 5.07983Z" fill="#179BD7"/>
<path d="M14.9433 4.73959C14.6815 4.66386 14.4152 4.60475 14.1459 4.56262C13.6139 4.48086 13.0762 4.44163 12.5379 4.4453H7.66499C7.47954 4.44516 7.30014 4.51137 7.15926 4.63196C7.01838 4.75255 6.92528 4.91956 6.89682 5.10283L5.86014 11.6686L5.83032 11.8602C5.86264 11.6512 5.96865 11.4606 6.12929 11.323C6.28988 11.1854 6.49439 11.1098 6.70591 11.1099H8.52997C12.1125 11.1099 14.9175 9.655 15.7374 5.44617C15.7619 5.32155 15.7825 5.20023 15.801 5.08161C15.5846 4.96815 15.3592 4.87303 15.1269 4.79726C15.066 4.77705 15.0048 4.75783 14.9433 4.73959Z" fill="#222D65"/>
<path d="M6.89595 5.10299C6.92417 4.91967 7.01722 4.75258 7.1582 4.63205C7.29918 4.51152 7.47868 4.44555 7.66413 4.44613H12.5371C13.1144 4.44613 13.6533 4.48391 14.1451 4.56345C14.4779 4.61575 14.8061 4.69398 15.1267 4.79742C15.3687 4.87762 15.5933 4.9724 15.8008 5.08177C16.0447 3.52615 15.7988 2.46698 14.9577 1.50789C14.0304 0.452036 12.3568 0 10.2153 0H3.99814C3.56068 0 3.18752 0.318149 3.11991 0.750965L0.530311 17.1654C0.518249 17.2417 0.522837 17.3196 0.543764 17.3939C0.564685 17.4681 0.601451 17.5369 0.651523 17.5957C0.701596 17.6544 0.763791 17.7015 0.83383 17.7339C0.903869 17.7663 0.980086 17.7831 1.05724 17.7832H4.89559L5.85933 11.6688L6.89595 5.10299Z" fill="#253B80"/>
</svg>
