<svg width="20" height="20" viewBox="0 0 20 20" fill="none" xmlns="http://www.w3.org/2000/svg">
<path d="M10.0001 18.3334C5.39758 18.3334 1.66675 14.6026 1.66675 10.0001C1.66675 5.39758 5.39758 1.66675 10.0001 1.66675C14.6026 1.66675 18.3334 5.39758 18.3334 10.0001C18.3334 14.6026 14.6026 18.3334 10.0001 18.3334ZM10.0001 16.6667C11.7682 16.6667 13.4639 15.9644 14.7141 14.7141C15.9644 13.4639 16.6667 11.7682 16.6667 10.0001C16.6667 8.23197 15.9644 6.53628 14.7141 5.28604C13.4639 4.03579 11.7682 3.33341 10.0001 3.33341C8.23197 3.33341 6.53628 4.03579 5.28604 5.28604C4.03579 6.53628 3.33341 8.23197 3.33341 10.0001C3.33341 11.7682 4.03579 13.4639 5.28604 14.7141C6.53628 15.9644 8.23197 16.6667 10.0001 16.6667ZM9.16675 12.5001H10.8334V14.1667H9.16675V12.5001ZM10.8334 11.1292V11.6667H9.16675V10.4167C9.16675 10.1957 9.25455 9.98377 9.41083 9.82749C9.56711 9.67121 9.77907 9.58342 10.0001 9.58342C10.2368 9.5834 10.4687 9.51616 10.6687 9.38952C10.8687 9.26288 11.0286 9.08205 11.1299 8.86807C11.2311 8.65408 11.2696 8.41574 11.2407 8.18078C11.2117 7.94582 11.1167 7.7239 10.9666 7.54084C10.8165 7.35778 10.6175 7.22111 10.3928 7.14672C10.168 7.07234 9.92678 7.0633 9.6971 7.12067C9.46743 7.17803 9.25876 7.29944 9.09539 7.47076C8.93201 7.64208 8.82065 7.85628 8.77425 8.08842L7.13925 7.76091C7.24061 7.25432 7.47467 6.78372 7.81752 6.39724C8.16036 6.01075 8.59968 5.72223 9.09057 5.56118C9.58147 5.40013 10.1063 5.37232 10.6115 5.48059C11.1166 5.58887 11.584 5.82934 11.9658 6.17744C12.3475 6.52553 12.63 6.96875 12.7843 7.4618C12.9387 7.95485 12.9593 8.48004 12.8441 8.98367C12.729 9.48731 12.4821 9.95133 12.1288 10.3283C11.7756 10.7053 11.3285 10.9817 10.8334 11.1292Z" fill="#9055FD"/>
</svg>
