<svg width="43" height="43" viewBox="0 0 43 43" fill="none" xmlns="http://www.w3.org/2000/svg">
<path d="M21.5 39.3955C11.8348 39.3955 4 31.5608 4 21.8955C4 12.2303 11.8348 4.39551 21.5 4.39551C31.1652 4.39551 39 12.2303 39 21.8955C39 31.5608 31.1652 39.3955 21.5 39.3955ZM21.5 35.8955C25.213 35.8955 28.774 34.4205 31.3995 31.795C34.025 29.1695 35.5 25.6085 35.5 21.8955C35.5 18.1825 34.025 14.6215 31.3995 11.996C28.774 9.3705 25.213 7.89551 21.5 7.89551C17.787 7.89551 14.226 9.3705 11.6005 11.996C8.975 14.6215 7.5 18.1825 7.5 21.8955C7.5 25.6085 8.975 29.1695 11.6005 31.795C14.226 34.4205 17.787 35.8955 21.5 35.8955V35.8955ZM23.25 21.8955H30.25V25.3955H19.75V13.1455H23.25V21.8955Z" fill="#56CA00"/>
</svg>
