<svg width="43" height="43" viewBox="0 0 43 43" fill="none" xmlns="http://www.w3.org/2000/svg">
<path d="M21.5 39.3955C11.8348 39.3955 4 31.5608 4 21.8955C4 12.2303 11.8348 4.39551 21.5 4.39551C31.1652 4.39551 39 12.2303 39 21.8955C39 31.5608 31.1652 39.3955 21.5 39.3955ZM21.5 35.8955C25.213 35.8955 28.774 34.4205 31.3995 31.795C34.025 29.1695 35.5 25.6085 35.5 21.8955C35.5 18.1825 34.025 14.6215 31.3995 11.996C28.774 9.3705 25.213 7.89551 21.5 7.89551C17.787 7.89551 14.226 9.3705 11.6005 11.996C8.975 14.6215 7.5 18.1825 7.5 21.8955C7.5 25.6085 8.975 29.1695 11.6005 31.795C14.226 34.4205 17.787 35.8955 21.5 35.8955V35.8955ZM12.75 21.8955H16.25C16.25 23.2879 16.8031 24.6233 17.7877 25.6078C18.7723 26.5924 20.1076 27.1455 21.5 27.1455C22.8924 27.1455 24.2277 26.5924 25.2123 25.6078C26.1969 24.6233 26.75 23.2879 26.75 21.8955H30.25C30.25 24.2162 29.3281 26.4417 27.6872 28.0827C26.0462 29.7236 23.8206 30.6455 21.5 30.6455C19.1794 30.6455 16.9538 29.7236 15.3128 28.0827C13.6719 26.4417 12.75 24.2162 12.75 21.8955V21.8955Z" fill="white"/>
</svg>
